<?xml version="1.0" standalone="no"?><!DOCTYPE svg PUBLIC "-//W3C//DTD SVG 1.1//EN" "http://www.w3.org/Graphics/SVG/1.1/DTD/svg11.dtd"><svg width="200" height="200" viewBox="0 0 200 200" version="1.1" xmlns="http://www.w3.org/2000/svg" xmlns:xlink="http://www.w3.org/1999/xlink"><defs><style type="text/css"><![CDATA[
@font-face { font-family: ifont; src: url("//at.alicdn.com/t/font_1442373896_4754455.eot?#iefix") format("embedded-opentype"), url("//at.alicdn.com/t/font_1442373896_4754455.woff") format("woff"), url("//at.alicdn.com/t/font_1442373896_4754455.ttf") format("truetype"), url("//at.alicdn.com/t/font_1442373896_4754455.svg#ifont") format("svg"); }

]]></style></defs><g class="transform-group"><g transform="scale(0.1953125, 0.1953125)"><path d="M971.740776 478.601332l-37.506219-33.111119c4.740978-4.665253 9.541307-9.102309 14.282285-13.824867 7.020904-6.997368 6.780427-17.977443-0.540306-24.63405-7.381108-6.656607-18.903535-6.372128-25.984814 0.626263C782.76989 545.904181 638.806057 612.296287 493.342058 605.297896c-222.757386-11.093662-374.521882-194.454784-375.962697-196.275245-6.241145-7.623631-17.762549-9.102309-25.804712-3.185552-7.981788 5.859451-9.541307 16.72594-3.360538 24.463158 1.200338 1.478677 7.500834 8.988722 18.243503 20.424168l-38.226626 33.680077c-7.500834 6.599302-7.801686 17.636682-0.900509 24.63405 3.540639 3.698229 8.461719 5.51869 13.381775 5.51869 4.500501 0 9.001001-1.535983 12.541641-4.665253l38.526455-34.078143c18.84316 17.636682 43.326784 38.628786 73.03234 59.565631l-30.544667 54.729485c-4.740978 8.477069-1.38044 19.001773 7.680936 23.496134 2.700505 1.422396 5.640464 2.104941 8.581446 2.104941 6.540973 0 12.901845-3.356444 16.262382-9.330506l28.325116-50.746778c30.244838 18.944468 64.750723 36.922934 102.797247 51.373041l-16.383132 67.871807c-2.279926 9.330506 3.900843 18.659989 13.862729 20.87954 1.320065 0.341784 2.76088 0.455371 4.080945 0.455371 8.401344 0 15.962553-5.461385 17.883299-13.540388l15.422248-63.661925c36.666084 11.150968 76.212776 18.774599 118.340245 20.993127 3.120061 0.113587 6.180769 0 9.30083 0.113587l0.299829 74.471109c0 9.444093 8.221242 17.238616 18.302855 17.238616l0.060375 0c10.140964 0 18.36323-7.90811 18.36323-17.46579l-0.240477-74.471109c44.167942-2.104941 88.035032-10.468422 131.661645-24.974811l15.302521 63.320141c2.040473 8.135284 9.601682 13.426801 17.883299 13.426801 1.38044 0 2.76088-0.113587 4.200672-0.341784 9.901511-2.218528 16.08228-11.549034 13.741979-20.87954l-16.442484-68.38346c34.085306-13.995759 67.991534-31.915897 101.477182-53.477982l29.825282 53.30709c3.300162 5.974062 9.601682 9.330506 16.262382 9.330506 2.880607 0 5.820566-0.682545 8.641821-2.104941 8.881274-4.437056 12.302187-14.905478 7.561209-23.438828L835.277778 528.153912c24.424272-17.46579 48.727795-36.922934 72.732511-58.427714l38.766932 34.362622c3.601015 3.12927 8.04114 4.665253 12.482289 4.665253 4.92108 0 9.842159-1.877767 13.502525-5.632277C979.601814 496.123404 979.121883 485.143329 971.740776 478.601332z" fill="#ffffff"></path></g></g></svg>