<?xml version="1.0" standalone="no"?><!DOCTYPE svg PUBLIC "-//W3C//DTD SVG 1.1//EN" "http://www.w3.org/Graphics/SVG/1.1/DTD/svg11.dtd"><svg width="200" height="200" viewBox="0 0 200 200" version="1.1" xmlns="http://www.w3.org/2000/svg" xmlns:xlink="http://www.w3.org/1999/xlink"><defs><style type="text/css"><![CDATA[
@font-face { font-family: ifont; src: url("//at.alicdn.com/t/font_1442373896_4754455.eot?#iefix") format("embedded-opentype"), url("//at.alicdn.com/t/font_1442373896_4754455.woff") format("woff"), url("//at.alicdn.com/t/font_1442373896_4754455.ttf") format("truetype"), url("//at.alicdn.com/t/font_1442373896_4754455.svg#ifont") format("svg"); }

]]></style></defs><g class="transform-group"><g transform="scale(0.1953125, 0.1953125)"><path d="M734.208894 124.114762c-65.681932-37.975916-141.934616-59.706847-223.258807-59.706847-246.716055 0-446.716134 200.001103-446.716134 446.716134s200.001103 446.716134 446.716134 446.716134 446.716134-200.001103 446.716134-446.716134C957.667246 345.737302 867.786169 201.339588 734.208894 124.114762zM727.410048 517.805216c-3.099594 8.447393-7.175423 16.59598-12.142551 24.216541-4.172019 6.412037-8.988722 12.487406-14.309914 18.067494l-1.01819 0.977257-188.063213 172.980703L322.700633 561.493228c-6.043646-6.14393-11.483542-12.95608-16.145725-20.24509-4.594645-7.184633-8.42488-14.846126-11.387351-22.784936-5.021364-13.473873-7.575536-33.686217-7.575536-47.623647 0-68.049862 58.075697-108.620883 129.47484-108.620883 35.94056 0 69.831438 26.033933 94.097098 50.513464 24.257473-24.479531 58.157561-50.513464 94.102215-50.513464 71.38584 0 129.460514 40.571021 129.460514 108.620883C734.726687 484.540601 732.263589 504.540098 727.410048 517.805216z" fill="#ffffff"></path></g></g></svg>