<?xml version="1.0" standalone="no"?><!DOCTYPE svg PUBLIC "-//W3C//DTD SVG 1.1//EN" "http://www.w3.org/Graphics/SVG/1.1/DTD/svg11.dtd"><svg width="200" height="200" viewBox="0 0 200 200" version="1.1" xmlns="http://www.w3.org/2000/svg" xmlns:xlink="http://www.w3.org/1999/xlink"><defs><style type="text/css"><![CDATA[
@font-face { font-family: ifont; src: url("//at.alicdn.com/t/font_1442373896_4754455.eot?#iefix") format("embedded-opentype"), url("//at.alicdn.com/t/font_1442373896_4754455.woff") format("woff"), url("//at.alicdn.com/t/font_1442373896_4754455.ttf") format("truetype"), url("//at.alicdn.com/t/font_1442373896_4754455.svg#ifont") format("svg"); }

]]></style></defs><g class="transform-group"><g transform="scale(0.1953125, 0.1953125)"><path d="M511.342014 666.481374c-82.261539 0-149.175531-66.931389-149.175531-149.192927s66.913992-149.192927 149.175531-149.192927 149.210323 66.931389 149.210323 149.192927S593.603553 666.481374 511.342014 666.481374zM511.342014 784.405133c-178.829921 0-339.081719-100.092649-418.148495-261.213233-3.64604-7.413853-3.64604-16.09456 0-23.508413 79.066777-161.103188 239.319597-261.195837 418.148495-261.195837 178.864714 0 339.116511 100.092649 418.183288 261.195837 3.64604 7.413853 3.64604 16.09456 0 23.508413C850.458525 684.312484 690.205705 784.405133 511.342014 784.405133zM147.050124 511.438205c71.948659 135.823432 210.324216 219.630163 364.29189 219.630163s292.378024-83.806731 364.326683-219.630163c-71.948659-135.806036-210.359009-219.612767-364.326683-219.612767C357.409133 291.825438 218.998783 375.632169 147.050124 511.438205z" fill="#ffffff"></path></g></g></svg>