<?xml version="1.0" standalone="no"?><!DOCTYPE svg PUBLIC "-//W3C//DTD SVG 1.1//EN" "http://www.w3.org/Graphics/SVG/1.1/DTD/svg11.dtd"><svg width="200" height="200" viewBox="0 0 200 200" version="1.1" xmlns="http://www.w3.org/2000/svg" xmlns:xlink="http://www.w3.org/1999/xlink"><defs><style type="text/css"><![CDATA[
@font-face { font-family: ifont; src: url("//at.alicdn.com/t/font_1442373896_4754455.eot?#iefix") format("embedded-opentype"), url("//at.alicdn.com/t/font_1442373896_4754455.woff") format("woff"), url("//at.alicdn.com/t/font_1442373896_4754455.ttf") format("truetype"), url("//at.alicdn.com/t/font_1442373896_4754455.svg#ifont") format("svg"); }

]]></style></defs><g class="transform-group"><g transform="scale(0.1953125, 0.1953125)">
    <path d="M597.170287 348.210633c-91.474364 0-165.634388 74.621535-165.634388 166.67816s74.161047 165.4154 165.634388 165.4154 163.860998-73.358775 163.860998-165.4154S688.644651 348.210633 597.170287 348.210633zM932.931377 165.359119 798.113855 165.359119c-35.889395-45.981241-77.589123-99.244328-78.171384-99.244328L425.901575 66.11479c-0.689708 0-42.836621 53.264111-79.093383 99.244328L91.088066 165.359119c-49.172933 0-89.021499 39.848567-89.021499 89.021499l0 519.073092c0 49.172933 39.848567 89.020476 89.021499 89.020476L932.931377 862.474187c49.172933 0 89.021499-39.847543 89.021499-89.020476L1021.952876 254.380618C1021.952876 205.207685 982.103286 165.359119 932.931377 165.359119zM225.859539 390.802684c-27.998681 0-50.679239-22.680559-50.679239-50.653657 0-27.998681 22.680559-50.679239 50.679239-50.679239 27.973098 0 50.653657 22.680559 50.653657 50.679239C276.513196 368.122125 253.832637 390.802684 225.859539 390.802684zM599.962889 737.442542c-123.114992 0-226.609111-100.434433-226.609111-224.302579 0-123.890658 103.494119-224.301556 226.609111-224.301556 123.090433 0 221.655286 100.410897 221.655286 224.301556C821.618175 637.007085 723.053322 737.442542 599.962889 737.442542z" fill="#f4b658"></path>
</g></g></svg>